<svg width="300" height="100" xmlns="http://www.w3.org/2000/svg">

 <metadata id="metadata4612">image/svg+xml</metadata>
 <g>
  <title>background</title>
  <rect fill="none" id="canvas_background" height="102" width="302" y="-1" x="-1"/>
 </g>
 <g>
  <title>Layer 1</title>
  <g stroke="null" id="layer1">
   <g stroke="null" id="g4535">
    <g stroke="null" id="g4356" transform="matrix(4.763540038939839,0,0,4.763540038939839,-364.5223001794373,-567.3185053384371) ">
     <path fill="#000000" stroke-width="0.070004" id="path4118-0" d="m107.660866,121.87312q1.67076,0 2.91254,0.63218q1.24177,0.63218 2.05457,1.76107q0.83538,1.10631 1.2192,2.52871q0.4064,1.4224 0.4064,2.98026q0,2.16747 -0.72249,3.97369q-0.69991,1.78365 -2.16746,2.86738q-1.44498,1.06116 -3.70276,1.06116l-5.75733,0q-0.29351,0 -0.49671,-0.2032q-0.18062,-0.2032 -0.18062,-0.47414l0,-14.44977q0,-0.27094 0.18062,-0.47414q0.2032,-0.2032 0.49671,-0.2032l5.75733,0zm-0.22578,14.47236q1.89654,0 3.07058,-0.88054q1.19662,-0.88053 1.73849,-2.37066q0.56445,-1.51271 0.56445,-3.31894q0,-1.28693 -0.31609,-2.48355q-0.29351,-1.19662 -0.94827,-2.09973q-0.63218,-0.92569 -1.67076,-1.44498q-1.016,-0.54187 -2.4384,-0.54187l-4.94453,0l0.15805,-0.18062l0,13.54667l-0.13547,-0.22578l4.92195,0z"/>
     <path fill="#000000" stroke-width="0.070004" id="path4120-8" d="m120.789236,137.66848q-1.76107,0 -3.09316,-0.74506q-1.30951,-0.74507 -2.05458,-2.07716q-0.74506,-1.33209 -0.74506,-3.11573q0,-1.91911 0.74506,-3.27378q0.76765,-1.35467 1.96427,-2.07715q1.2192,-0.74507 2.57387,-0.74507q0.99342,0 1.91911,0.36124q0.94826,0.33867 1.67075,1.03858q0.72249,0.67733 1.17404,1.67076q0.45156,0.99342 0.47414,2.30293q0,0.27093 -0.2032,0.47413q-0.2032,0.18063 -0.47414,0.18063l-9.05368,0l-0.27094,-1.2192l8.87307,0l-0.29351,0.27093l0,-0.45156q-0.0903,-1.06115 -0.67733,-1.78364q-0.58703,-0.74507 -1.4224,-1.12889q-0.8128,-0.4064 -1.71591,-0.4064q-0.67734,0 -1.39983,0.27093q-0.69991,0.27094 -1.28693,0.85796q-0.56444,0.56444 -0.92569,1.46755q-0.36124,0.88054 -0.36124,2.09974q0,1.33209 0.54186,2.41582q0.54187,1.08373 1.55787,1.71591q1.016,0.63218 2.46098,0.63218q0.76764,0 1.39982,-0.22578q0.63218,-0.22578 1.10631,-0.58702q0.49671,-0.38382 0.8128,-0.79022q0.22578,-0.2032 0.47413,-0.2032q0.24836,0 0.4064,0.18062q0.18062,0.18062 0.18062,0.4064q0,0.27093 -0.22577,0.47413q-0.67734,0.8128 -1.76107,1.4224q-1.08373,0.58702 -2.37066,0.58702z"/>
     <path fill="#000000" stroke-width="0.070004" id="path4122-0" d="m125.950456,125.8882q0.18062,0 0.36125,0.11289q0.18062,0.11288 0.27093,0.33866l3.9511,9.39236l-0.29351,0.18062l4.04142,-9.57298q0.18062,-0.45155 0.65476,-0.42898q0.22578,0 0.42898,0.15805q0.2032,0.15804 0.2032,0.4064q0,0.13547 -0.0452,0.22578q-0.0226,0.0903 -0.0452,0.15804l-4.42524,10.38578q-0.18062,0.4064 -0.6096,0.42898q-0.2032,0.0226 -0.4064,-0.0903q-0.2032,-0.13547 -0.27093,-0.33867l-4.44782,-10.3632q-0.0226,-0.0677 -0.0452,-0.15805q-0.0226,-0.0903 -0.0226,-0.18062q0,-0.24835 0.18062,-0.45155q0.18063,-0.2032 0.51929,-0.2032l0.00015,-0.00001z"/>
     <g stroke="null" transform="rotate(-22.15988540649414 135.637222290039,115.70714569091791) " id="g4311">
      <path fill="#000000" stroke-width="0.264583" id="rect4318" d="m129.754586,124.97261l2.0903,-0.51675l-0.52761,2.07944l-0.79459,-0.78435l-0.7681,-0.77834z" transform="rotate(-0.11861541122198105 -0.7780244350427339,-25.418399810790966) "/>
     </g>
    </g>
    <path fill="#000000" stroke-width="1.599504" id="path4364" d="m54.763188,75.356065q2.726932,0 4.509933,1.812253q1.88788,1.705655 1.88788,4.477342q0,2.665072 -1.88788,4.477326q-1.783001,1.705655 -4.509933,1.705655l-34.086705,0q-2.726932,0 -4.614812,-1.812253q-1.783001,-1.918868 -1.783001,-4.690539l0,-61.616591q0,-2.771671 1.88788,-4.583924q1.88788,-1.918851 4.824571,-1.918851q2.517173,0 4.405054,1.918851q1.99276,1.812253 1.99276,4.583924l0,57.45906l-2.307398,-1.812253l29.681651,0z"/>
    <path fill="#000000" stroke-width="1.60989" id="path4366" d="m119.306934,13.206482q2.535105,0 4.119552,1.715637q1.584447,1.71567 1.584447,4.289118l0,62.513785q0,2.7879 -1.901333,4.718023q-1.79571,1.822863 -4.542078,1.822863q-1.373184,0 -2.851991,-0.428922q-1.373184,-0.536131 -2.112596,-1.393942l-41.512455,-53.506661l2.746385,-1.715637l0,51.040407q0,2.57348 -1.690087,4.289118q-1.58443,1.715637 -4.225175,1.715637q-2.535122,0 -4.119569,-1.715637q-1.58443,-1.715637 -1.58443,-4.289118l0,-62.513785q0,-2.787917 1.795693,-4.610796q1.901333,-1.93009 4.647701,-1.93009q1.478824,0 3.063271,0.643358q1.584447,0.536148 2.323842,1.71567l40.244895,52.11267l-1.79571,1.286732l0,-49.753675q0,-2.573447 1.584447,-4.289118q1.584447,-1.715637 4.225192,-1.715637z"/>
   </g>
  </g>
 </g>
</svg>